<?xml version="1.0" encoding="utf-8"?>
<!-- Generator: Adobe Illustrator 24.0.1, SVG Export Plug-In . SVG Version: 6.00 Build 0)  -->
<svg version="1.1" id="Layer_1" xmlns="http://www.w3.org/2000/svg" xmlns:xlink="http://www.w3.org/1999/xlink" x="0px" y="0px"
	 viewBox="0 0 388 388" style="enable-background:new 0 0 388 388;" xml:space="preserve">
<style type="text/css">
	.st0{fill:#005C8D;}
</style>
<path class="st0" d="M283.9,11H101.1C49.8,11,8,52.8,8,104.1v182.8c0,51.3,41.8,93.1,93.1,93.1h182.8c51.3,0,93.1-41.7,93.1-93.1
	V104.1C377,52.8,335.3,11,283.9,11z M336.9,286.9c0,29.2-23.7,52.9-52.9,52.9H101.1c-29.2,0-52.9-23.7-52.9-52.9V104.1
	c0-29.2,23.7-52.9,52.9-52.9h182.8c29.2,0,52.9,23.7,52.9,52.9V286.9z"/>
<path class="st0" d="M290.6,120.1c-12.4,0-22.5-10.1-22.5-22.5c0-12.4,10.1-22.5,22.5-22.5c12.4,0,22.5,10.1,22.5,22.5
	C313.1,110,303,120.1,290.6,120.1z"/>
<path class="st0" d="M192.5,100.5c-52.4,0-95,42.6-95,95s42.6,95,95,95c52.4,0,95-42.6,95-95C287.6,143.1,244.9,100.5,192.5,100.5z
	 M192.5,250.4c-30.2,0-54.9-24.6-54.9-54.9c0-30.3,24.6-54.9,54.9-54.9c30.3,0,54.9,24.6,54.9,54.9
	C247.4,225.8,222.8,250.4,192.5,250.4z"/>
</svg>
