<?xml version="1.0" encoding="utf-8"?>
<!-- Generator: Adobe Illustrator 24.0.1, SVG Export Plug-In . SVG Version: 6.00 Build 0)  -->
<svg version="1.1" id="Layer_1" xmlns="http://www.w3.org/2000/svg" xmlns:xlink="http://www.w3.org/1999/xlink" x="0px" y="0px"
	 viewBox="0 0 485 485" style="enable-background:new 0 0 485 485;" xml:space="preserve">
<style type="text/css">
	.st0{fill:#A56750;}
</style>
<path class="st0" d="M13.4,230.1L123.1,271l42.5,136.5c2.7,8.7,13.4,12,20.5,6.2l61.1-49.8c6.4-5.2,15.5-5.5,22.2-0.6l110.3,80.1
	c7.6,5.5,18.3,1.4,20.3-7.8l80.8-388.6c2.1-10-7.8-18.4-17.3-14.7L13.3,205.9C2.2,210.2,2.3,225.9,13.4,230.1z M158.7,249.2
	l214.4-132c3.8-2.4,7.8,2.8,4.5,5.9L200.7,287.6c-6.2,5.8-10.2,13.5-11.4,21.9l-6,44.7c-0.8,6-9.2,6.6-10.8,0.8l-23.2-81.4
	C146.6,264.2,150.5,254.3,158.7,249.2z"/>
</svg>
