<?xml version="1.0" encoding="utf-8"?>
<!-- Generator: Adobe Illustrator 24.0.1, SVG Export Plug-In . SVG Version: 6.00 Build 0)  -->
<svg version="1.1" id="Layer_1" xmlns="http://www.w3.org/2000/svg" xmlns:xlink="http://www.w3.org/1999/xlink" x="0px" y="0px"
	 viewBox="0 0 485 485" style="enable-background:new 0 0 485 485;" xml:space="preserve">
<style type="text/css">
	.st0{fill:#005C8D;}
</style>
<path class="st0" d="M9,389c42.6,27.3,93.2,43.2,147.5,43.2c177,0,273.8-146.6,273.8-273.8c0-4.2-0.1-8.3-0.3-12.4
	c18.8-13.6,35.1-30.5,48-49.8c-17.3,7.7-35.8,12.8-55.3,15.2c19.9-11.9,35.1-30.8,42.3-53.2c-18.6,11-39.2,19-61.1,23.3
	c-17.6-18.7-42.6-30.4-70.2-30.4c-53.1,0-96.2,43.1-96.2,96.2c0,7.5,0.9,14.9,2.5,21.9c-80-4-150.9-42.3-198.3-100.5
	c-8.3,14.2-13,30.7-13,48.4c0,33.4,17,62.8,42.8,80.1c-15.8-0.5-30.6-4.8-43.6-12c0,0.4,0,0.8,0,1.2c0,46.6,33.2,85.5,77.2,94.3
	c-8.1,2.2-16.6,3.4-25.4,3.4c-6.2,0-12.2-0.6-18.1-1.7c12.2,38.2,47.8,66,89.9,66.8C118.5,375,77,390.4,32,390.4
	C24.2,390.4,16.5,389.9,9,389z"/>
</svg>
